# xmcd CD database file
#
# Track frame offsets:
#	150
#	15366
#	31331
#	46758
#	62757
#	78362
#	93257
#	110288
#	124212
#	139068
#	150047
#	161002
#	169505
#	179918
#	195086
#	208562
#	225060
#	237931
#	252564
#	263420
#	274239
#	285902
#	297679
#	309532
#	321087
#	338045
#	352862
#
# Disc length: 4724 seconds
#
# Revision: 0
# Processed by: cddbd v1.5.1PL0 Copyright (c) Steve Scherf et al.
# Submitted via: CDex 1.51
#
DISCID=6412721b
DTITLE=Dj Duda - Dj Duda Forro vol 2
DYEAR=2004
DGENRE=Country
TTITLE0=Demorou - Banda Agita Galera
TTITLE1=Coracao  - Gabriel Lener
TTITLE2=Somos Loucos
TTITLE3=Futricar
TTITLE4=So Quero Um Dj
TTITLE5=Corrinha
TTITLE6=Principe Encantado - Banda Agita Galera
TTITLE7=Mexe Mexe - Gabriel Lener
TTITLE8=Tiquim
TTITLE9=Cai Sereno Cai
TTITLE10=Melo do Gay - Amauri Junior
TTITLE11=A Cachaca
TTITLE12=Cervejaria
TTITLE13=O Bicho Vai Pegar
TTITLE14=Cara de Boi
TTITLE15=Saudade Pica Pau
TTITLE16=Quem Tem Pressa
TTITLE17=Pipoca e Sanfona
TTITLE18=Deixe as Aguas Rolar - Amauri Junior
TTITLE19=O Caloteiro - Cuscuz do Cerrado
TTITLE20=Computador no Pau
TTITLE21=Resposta da Patricinha - Carlos e Crystian
TTITLE22=Chillepe
TTITLE23=Gigi ta Namorando
TTITLE24=Melo do Arrocha
TTITLE25=Cowboy Viado
TTITLE26=Contato p/ Shows
EXTD=YEAR: 2004
EXTT0=
EXTT1=
EXTT2=
EXTT3=
EXTT4=
EXTT5=
EXTT6=
EXTT7=
EXTT8=
EXTT9=
EXTT10=
EXTT11=
EXTT12=
EXTT13=
EXTT14=
EXTT15=
EXTT16=
EXTT17=
EXTT18=
EXTT19=
EXTT20=
EXTT21=
EXTT22=
EXTT23=
EXTT24=
EXTT25=
EXTT26=
PLAYORDER=
